<svg width="24" height="24" viewBox="0 0 24 24" fill="none" xmlns="http://www.w3.org/2000/svg">
<path d="M6.43958 4.95929C5.3232 5.4846 4.6385 6.55309 4.47412 7.07054L10.4155 5.97561L9.05827 4.59836C9.00168 4.53865 8.92393 4.5035 8.84172 4.50044C8.35571 4.49187 7.11641 4.60622 6.44029 4.95929" fill="url(#paint0_linear_154_174)"/>
<path d="M6.43958 4.95929C5.3232 5.4846 4.6385 6.55309 4.47412 7.07054L10.4155 5.97561L9.05827 4.59836C9.00168 4.53865 8.92393 4.5035 8.84172 4.50044C8.35571 4.49187 7.11641 4.60622 6.44029 4.95929" fill="url(#paint1_linear_154_174)"/>
<path d="M17.4952 4.95929C18.6123 5.4846 19.2977 6.55309 19.4607 7.07054L13.52 5.97561L14.8765 4.59836C14.9333 4.53848 15.0113 4.50331 15.0938 4.50044C15.5798 4.49187 16.8191 4.60622 17.4952 4.95929Z" fill="url(#paint2_linear_154_174)"/>
<path d="M17.4952 4.95929C18.6123 5.4846 19.2977 6.55309 19.4607 7.07054L13.52 5.97561L14.8765 4.59836C14.9333 4.53848 15.0113 4.50331 15.0938 4.50044C15.5798 4.49187 16.8191 4.60622 17.4952 4.95929Z" fill="url(#paint3_linear_154_174)"/>
<path d="M7.33618 5.41736C5.78383 5.41736 4.40373 6.41795 3.97704 7.91098C3.28415 10.3498 2.67156 12.8107 2.14024 15.2897C1.9587 16.2116 1.8615 18.0027 2.44185 18.8961C3.38026 20.1919 4.32582 20.1111 5.35644 19.2863L8.23958 16.9771C8.55653 16.7231 8.95053 16.5847 9.35667 16.5847H14.5569C14.9628 16.5849 15.3565 16.7233 15.6733 16.9771L18.5571 19.2856C19.5878 20.1118 20.5333 20.1919 21.471 18.8961C22.0521 18.0027 21.9542 16.2116 21.7726 15.2889C21.7726 15.2889 21.0493 11.8033 19.9365 7.91098C19.5098 6.41867 18.129 5.41736 16.5774 5.41736H7.33618Z" fill="url(#paint4_linear_154_174)"/>
<path d="M7.33618 5.41736C5.78383 5.41736 4.40373 6.41795 3.97704 7.91098C3.28415 10.3498 2.67156 12.8107 2.14024 15.2897C1.9587 16.2116 1.8615 18.0027 2.44185 18.8961C3.38026 20.1919 4.32582 20.1111 5.35644 19.2863L8.23958 16.9771C8.55653 16.7231 8.95053 16.5847 9.35667 16.5847H14.5569C14.9628 16.5849 15.3565 16.7233 15.6733 16.9771L18.5571 19.2856C19.5878 20.1118 20.5333 20.1919 21.471 18.8961C22.0521 18.0027 21.9542 16.2116 21.7726 15.2889C21.7726 15.2889 21.0493 11.8033 19.9365 7.91098C19.5098 6.41867 18.129 5.41736 16.5774 5.41736H7.33618Z" fill="url(#paint5_radial_154_174)"/>
<path d="M7.33618 5.41736C5.78383 5.41736 4.40373 6.41795 3.97704 7.91098C3.28415 10.3498 2.67156 12.8107 2.14024 15.2897C1.9587 16.2116 1.8615 18.0027 2.44185 18.8961C3.38026 20.1919 4.32582 20.1111 5.35644 19.2863L8.23958 16.9771C8.55653 16.7231 8.95053 16.5847 9.35667 16.5847H14.5569C14.9628 16.5849 15.3565 16.7233 15.6733 16.9771L18.5571 19.2856C19.5878 20.1118 20.5333 20.1919 21.471 18.8961C22.0521 18.0027 21.9542 16.2116 21.7726 15.2889C21.7726 15.2889 21.0493 11.8033 19.9365 7.91098C19.5098 6.41867 18.129 5.41736 16.5774 5.41736H7.33618Z" fill="url(#paint6_radial_154_174)"/>
<path d="M7.33618 5.41736C5.78383 5.41736 4.40373 6.41795 3.97704 7.91098C3.28415 10.3498 2.67156 12.8107 2.14024 15.2897C1.9587 16.2116 1.8615 18.0027 2.44185 18.8961C3.38026 20.1919 4.32582 20.1111 5.35644 19.2863L8.23958 16.9771C8.55653 16.7231 8.95053 16.5847 9.35667 16.5847H14.5569C14.9628 16.5849 15.3565 16.7233 15.6733 16.9771L18.5571 19.2856C19.5878 20.1118 20.5333 20.1919 21.471 18.8961C22.0521 18.0027 21.9542 16.2116 21.7726 15.2889C21.7726 15.2889 21.0493 11.8033 19.9365 7.91098C19.5098 6.41867 18.129 5.41736 16.5774 5.41736H7.33618Z" fill="url(#paint7_radial_154_174)"/>
<path d="M7.33618 5.41736C5.78383 5.41736 4.40373 6.41795 3.97704 7.91098C3.28415 10.3498 2.67156 12.8107 2.14024 15.2897C1.9587 16.2116 1.8615 18.0027 2.44185 18.8961C3.38026 20.1919 4.32582 20.1111 5.35644 19.2863L8.23958 16.9771C8.55653 16.7231 8.95053 16.5847 9.35667 16.5847H14.5569C14.9628 16.5849 15.3565 16.7233 15.6733 16.9771L18.5571 19.2856C19.5878 20.1118 20.5333 20.1919 21.471 18.8961C22.0521 18.0027 21.9542 16.2116 21.7726 15.2889C21.7726 15.2889 21.0493 11.8033 19.9365 7.91098C19.5098 6.41867 18.129 5.41736 16.5774 5.41736H7.33618Z" fill="url(#paint8_radial_154_174)"/>
<path d="M7.33618 5.41736C5.78383 5.41736 4.40373 6.41795 3.97704 7.91098C3.28415 10.3498 2.67156 12.8107 2.14024 15.2897C1.9587 16.2116 1.8615 18.0027 2.44185 18.8961C3.38026 20.1919 4.32582 20.1111 5.35644 19.2863L8.23958 16.9771C8.55653 16.7231 8.95053 16.5847 9.35667 16.5847H14.5569C14.9628 16.5849 15.3565 16.7233 15.6733 16.9771L18.5571 19.2856C19.5878 20.1118 20.5333 20.1919 21.471 18.8961C22.0521 18.0027 21.9542 16.2116 21.7726 15.2889C21.7726 15.2889 21.0493 11.8033 19.9365 7.91098C19.5098 6.41867 18.129 5.41736 16.5774 5.41736H7.33618Z" fill="url(#paint9_radial_154_174)"/>
<path d="M7.33618 5.41736C5.78383 5.41736 4.40373 6.41795 3.97704 7.91098C3.28415 10.3498 2.67156 12.8107 2.14024 15.2897C1.9587 16.2116 1.8615 18.0027 2.44185 18.8961C3.38026 20.1919 4.32582 20.1111 5.35644 19.2863L8.23958 16.9771C8.55653 16.7231 8.95053 16.5847 9.35667 16.5847H14.5569C14.9628 16.5849 15.3565 16.7233 15.6733 16.9771L18.5571 19.2856C19.5878 20.1118 20.5333 20.1919 21.471 18.8961C22.0521 18.0027 21.9542 16.2116 21.7726 15.2889C21.7726 15.2889 21.0493 11.8033 19.9365 7.91098C19.5098 6.41867 18.129 5.41736 16.5774 5.41736H7.33618Z" fill="url(#paint10_radial_154_174)"/>
<path d="M7.33618 5.41736C5.78383 5.41736 4.40373 6.41795 3.97704 7.91098C3.28415 10.3498 2.67156 12.8107 2.14024 15.2897C1.9587 16.2116 1.8615 18.0027 2.44185 18.8961C3.38026 20.1919 4.32582 20.1111 5.35644 19.2863L8.23958 16.9771C8.55653 16.7231 8.95053 16.5847 9.35667 16.5847H14.5569C14.9628 16.5849 15.3565 16.7233 15.6733 16.9771L18.5571 19.2856C19.5878 20.1118 20.5333 20.1919 21.471 18.8961C22.0521 18.0027 21.9542 16.2116 21.7726 15.2889C21.7726 15.2889 21.0493 11.8033 19.9365 7.91098C19.5098 6.41867 18.129 5.41736 16.5774 5.41736H7.33618Z" fill="url(#paint11_radial_154_174)"/>
<path d="M7.33618 5.41736C5.78383 5.41736 4.40373 6.41795 3.97704 7.91098C3.28415 10.3498 2.67156 12.8107 2.14024 15.2897C1.9587 16.2116 1.8615 18.0027 2.44185 18.8961C3.38026 20.1919 4.32582 20.1111 5.35644 19.2863L8.23958 16.9771C8.55653 16.7231 8.95053 16.5847 9.35667 16.5847H14.5569C14.9628 16.5849 15.3565 16.7233 15.6733 16.9771L18.5571 19.2856C19.5878 20.1118 20.5333 20.1919 21.471 18.8961C22.0521 18.0027 21.9542 16.2116 21.7726 15.2889C21.7726 15.2889 21.0493 11.8033 19.9365 7.91098C19.5098 6.41867 18.129 5.41736 16.5774 5.41736H7.33618Z" fill="url(#paint12_radial_154_174)"/>
<path d="M7.33618 5.41736C5.78383 5.41736 4.40373 6.41795 3.97704 7.91098C3.28415 10.3498 2.67156 12.8107 2.14024 15.2897C1.9587 16.2116 1.8615 18.0027 2.44185 18.8961C3.38026 20.1919 4.32582 20.1111 5.35644 19.2863L8.23958 16.9771C8.55653 16.7231 8.95053 16.5847 9.35667 16.5847H14.5569C14.9628 16.5849 15.3565 16.7233 15.6733 16.9771L18.5571 19.2856C19.5878 20.1118 20.5333 20.1919 21.471 18.8961C22.0521 18.0027 21.9542 16.2116 21.7726 15.2889C21.7726 15.2889 21.0493 11.8033 19.9365 7.91098C19.5098 6.41867 18.129 5.41736 16.5774 5.41736H7.33618Z" fill="url(#paint13_radial_154_174)"/>
<path d="M15.2095 10.3983C15.6828 10.3983 16.0664 10.0147 16.0664 9.54139C16.0664 9.06811 15.6828 8.68445 15.2095 8.68445C14.7362 8.68445 14.3525 9.06811 14.3525 9.54139C14.3525 10.0147 14.7362 10.3983 15.2095 10.3983Z" fill="url(#paint14_radial_154_174)"/>
<path d="M15.9824 7.94385C15.9824 8.41713 16.3661 8.80079 16.8394 8.80079C17.3126 8.80079 17.6963 8.41713 17.6963 7.94385C17.6963 7.47058 17.3126 7.08691 16.8394 7.08691C16.3661 7.08691 15.9824 7.47058 15.9824 7.94385Z" fill="url(#paint15_radial_154_174)"/>
<path d="M18.4026 10.3983C18.8759 10.3983 19.2595 10.0147 19.2595 9.54139C19.2595 9.06811 18.8759 8.68445 18.4026 8.68445C17.9293 8.68445 17.5457 9.06811 17.5457 9.54139C17.5457 10.0147 17.9293 10.3983 18.4026 10.3983Z" fill="url(#paint16_radial_154_174)"/>
<path d="M15.9824 11.1379C15.9824 11.6112 16.3661 11.9949 16.8394 11.9949C17.3126 11.9949 17.6963 11.6112 17.6963 11.1379C17.6963 10.6647 17.3126 10.281 16.8394 10.281C16.3661 10.281 15.9824 10.6647 15.9824 11.1379Z" fill="url(#paint17_radial_154_174)"/>
<path d="M7.52348 10.9229C8.30069 10.9229 8.93074 10.2929 8.93074 9.51566C8.93074 8.73845 8.30069 8.1084 7.52348 8.1084C6.74626 8.1084 6.11621 8.73845 6.11621 9.51566C6.11621 10.2929 6.74626 10.9229 7.52348 10.9229Z" fill="url(#paint18_radial_154_174)"/>
<path d="M7.52348 10.9229C8.30069 10.9229 8.93074 10.2929 8.93074 9.51566C8.93074 8.73845 8.30069 8.1084 7.52348 8.1084C6.74626 8.1084 6.11621 8.73845 6.11621 9.51566C6.11621 10.2929 6.74626 10.9229 7.52348 10.9229Z" fill="url(#paint19_radial_154_174)"/>
<path d="M14.3912 14.5299C15.1684 14.5299 15.7984 13.8998 15.7984 13.1226C15.7984 12.3454 15.1684 11.7153 14.3912 11.7153C13.6139 11.7153 12.9839 12.3454 12.9839 13.1226C12.9839 13.8998 13.6139 14.5299 14.3912 14.5299Z" fill="url(#paint20_radial_154_174)"/>
<path d="M14.3912 14.5299C15.1684 14.5299 15.7984 13.8998 15.7984 13.1226C15.7984 12.3454 15.1684 11.7153 14.3912 11.7153C13.6139 11.7153 12.9839 12.3454 12.9839 13.1226C12.9839 13.8998 13.6139 14.5299 14.3912 14.5299Z" fill="url(#paint21_radial_154_174)"/>
<g filter="url(#filter0_ii_154_174)">
<path d="M10.0077 11.5262C9.89963 11.5262 9.79601 11.5692 9.71961 11.6456C9.64321 11.722 9.60029 11.8256 9.60029 11.9336V12.4418C9.60029 12.5366 9.56264 12.6275 9.49563 12.6945C9.42861 12.7615 9.33771 12.7991 9.24294 12.7991H8.73478C8.62673 12.7991 8.52311 12.8421 8.44671 12.9185C8.37031 12.9949 8.32739 13.0985 8.32739 13.2065C8.32739 13.3146 8.37031 13.4182 8.44671 13.4946C8.52311 13.571 8.62673 13.6139 8.73478 13.6139H9.24222C9.337 13.6139 9.42789 13.6516 9.49491 13.7186C9.56193 13.7856 9.59958 13.8765 9.59958 13.9713V14.4801C9.59958 14.5884 9.64257 14.6922 9.71911 14.7687C9.79564 14.8452 9.89944 14.8882 10.0077 14.8882C10.1159 14.8882 10.2197 14.8452 10.2962 14.7687C10.3728 14.6922 10.4158 14.5884 10.4158 14.4801V13.972C10.4158 13.8772 10.4534 13.7863 10.5204 13.7193C10.5875 13.6523 10.6784 13.6146 10.7731 13.6146H11.2806C11.3886 13.6146 11.4922 13.5717 11.5686 13.4953C11.645 13.4189 11.688 13.3153 11.688 13.2072C11.688 13.0992 11.645 12.9956 11.5686 12.9192C11.4922 12.8428 11.3886 12.7999 11.2806 12.7999H10.7731C10.6784 12.7999 10.5875 12.7622 10.5204 12.6952C10.4534 12.6282 10.4158 12.5373 10.4158 12.4425V11.9336C10.4158 11.8256 10.3729 11.722 10.2965 11.6456C10.2201 11.5692 10.1157 11.5262 10.0077 11.5262Z" fill="url(#paint22_radial_154_174)"/>
</g>
<defs>
<filter id="filter0_ii_154_174" x="8.30239" y="11.5012" width="3.4106" height="3.41194" filterUnits="userSpaceOnUse" color-interpolation-filters="sRGB">
<feFlood flood-opacity="0" result="BackgroundImageFix"/>
<feBlend mode="normal" in="SourceGraphic" in2="BackgroundImageFix" result="shape"/>
<feColorMatrix in="SourceAlpha" type="matrix" values="0 0 0 0 0 0 0 0 0 0 0 0 0 0 0 0 0 0 127 0" result="hardAlpha"/>
<feOffset dx="-0.025" dy="0.025"/>
<feGaussianBlur stdDeviation="0.025"/>
<feComposite in2="hardAlpha" operator="arithmetic" k2="-1" k3="1"/>
<feColorMatrix type="matrix" values="0 0 0 0 0.564706 0 0 0 0 0.568627 0 0 0 0 0.945098 0 0 0 1 0"/>
<feBlend mode="normal" in2="shape" result="effect1_innerShadow_154_174"/>
<feColorMatrix in="SourceAlpha" type="matrix" values="0 0 0 0 0 0 0 0 0 0 0 0 0 0 0 0 0 0 127 0" result="hardAlpha"/>
<feOffset dx="0.025" dy="-0.025"/>
<feGaussianBlur stdDeviation="0.025"/>
<feComposite in2="hardAlpha" operator="arithmetic" k2="-1" k3="1"/>
<feColorMatrix type="matrix" values="0 0 0 0 0.396078 0 0 0 0 0.360784 0 0 0 0 0.796078 0 0 0 1 0"/>
<feBlend mode="normal" in2="effect1_innerShadow_154_174" result="effect2_innerShadow_154_174"/>
</filter>
<linearGradient id="paint0_linear_154_174" x1="5.35607" y1="6.69032" x2="9.22051" y2="4.97072" gradientUnits="userSpaceOnUse">
<stop stop-color="#3C1B3C"/>
<stop offset="0.355" stop-color="#501752"/>
</linearGradient>
<linearGradient id="paint1_linear_154_174" x1="10.0803" y1="4.91498" x2="9.07543" y2="5.2273" gradientUnits="userSpaceOnUse">
<stop offset="0.827" stop-color="#613060"/>
<stop offset="1" stop-color="#613060" stop-opacity="0"/>
</linearGradient>
<linearGradient id="paint2_linear_154_174" x1="15.1174" y1="4.88138" x2="18.4001" y2="6.10997" gradientUnits="userSpaceOnUse">
<stop stop-color="#521852"/>
<stop offset="1" stop-color="#603260"/>
</linearGradient>
<linearGradient id="paint3_linear_154_174" x1="14.1232" y1="5.25018" x2="14.8994" y2="5.42885" gradientUnits="userSpaceOnUse">
<stop offset="0.83" stop-color="#3D193D"/>
<stop offset="1" stop-color="#3D193D" stop-opacity="0"/>
</linearGradient>
<linearGradient id="paint4_linear_154_174" x1="11.9568" y1="5.41736" x2="11.9568" y2="16.5847" gradientUnits="userSpaceOnUse">
<stop stop-color="#6259A7"/>
<stop offset="1" stop-color="#562F80"/>
</linearGradient>
<radialGradient id="paint5_radial_154_174" cx="0" cy="0" r="1" gradientUnits="userSpaceOnUse" gradientTransform="translate(11.9561 17.3623) rotate(-90) scale(2.23043 7.64362)">
<stop offset="0.357" stop-color="#5E2696"/>
<stop offset="1" stop-color="#5E2696" stop-opacity="0"/>
</radialGradient>
<radialGradient id="paint6_radial_154_174" cx="0" cy="0" r="1" gradientUnits="userSpaceOnUse" gradientTransform="translate(22.1637 18.3006) rotate(-107.504) scale(5.55805 6.2348)">
<stop stop-color="#6A4592"/>
<stop offset="1" stop-color="#6A4592" stop-opacity="0"/>
</radialGradient>
<radialGradient id="paint7_radial_154_174" cx="0" cy="0" r="1" gradientUnits="userSpaceOnUse" gradientTransform="translate(7.49485 9.50479) rotate(90) scale(1.76444)">
<stop offset="0.418" stop-color="#4A3383"/>
<stop offset="1" stop-color="#4A3383" stop-opacity="0"/>
</radialGradient>
<radialGradient id="paint8_radial_154_174" cx="0" cy="0" r="1" gradientUnits="userSpaceOnUse" gradientTransform="translate(14.3961 13.1684) rotate(90) scale(1.76444)">
<stop offset="0.671" stop-color="#4A3383"/>
<stop offset="1" stop-color="#4A3383" stop-opacity="0"/>
</radialGradient>
<radialGradient id="paint9_radial_154_174" cx="0" cy="0" r="1" gradientUnits="userSpaceOnUse" gradientTransform="translate(15.2109 9.52766) rotate(90) scale(1.07207)">
<stop offset="0.671" stop-color="#4A3383"/>
<stop offset="1" stop-color="#4A3383" stop-opacity="0"/>
</radialGradient>
<radialGradient id="paint10_radial_154_174" cx="0" cy="0" r="1" gradientUnits="userSpaceOnUse" gradientTransform="translate(16.8361 11.1472) rotate(90) scale(1.06648)">
<stop offset="0.671" stop-color="#4A3383"/>
<stop offset="1" stop-color="#4A3383" stop-opacity="0"/>
</radialGradient>
<radialGradient id="paint11_radial_154_174" cx="0" cy="0" r="1" gradientUnits="userSpaceOnUse" gradientTransform="translate(18.4049 9.53838) rotate(90) scale(1.04415)">
<stop offset="0.671" stop-color="#4A3383"/>
<stop offset="1" stop-color="#4A3383" stop-opacity="0"/>
</radialGradient>
<radialGradient id="paint12_radial_154_174" cx="0" cy="0" r="1" gradientUnits="userSpaceOnUse" gradientTransform="translate(16.8354 7.94743) rotate(90) scale(1.02181)">
<stop offset="0.671" stop-color="#4A3383"/>
<stop offset="1" stop-color="#4A3383" stop-opacity="0"/>
</radialGradient>
<radialGradient id="paint13_radial_154_174" cx="0" cy="0" r="1" gradientUnits="userSpaceOnUse" gradientTransform="translate(10.0299 13.1906) rotate(90) scale(1.94312)">
<stop offset="0.197" stop-color="#4A3383"/>
<stop offset="1" stop-color="#4A3383" stop-opacity="0"/>
</radialGradient>
<radialGradient id="paint14_radial_154_174" cx="0" cy="0" r="1" gradientUnits="userSpaceOnUse" gradientTransform="translate(16.0657 9.39344) rotate(180) scale(1.28425 1.12075)">
<stop stop-color="#5CC5FF"/>
<stop offset="1" stop-color="#259AF4"/>
</radialGradient>
<radialGradient id="paint15_radial_154_174" cx="0" cy="0" r="1" gradientUnits="userSpaceOnUse" gradientTransform="translate(17.4966 7.94397) rotate(180) scale(1.51318 1.32054)">
<stop stop-color="#FFDE74"/>
<stop offset="1" stop-color="#EEB84D"/>
</radialGradient>
<radialGradient id="paint16_radial_154_174" cx="0" cy="0" r="1" gradientUnits="userSpaceOnUse" gradientTransform="translate(19.2602 9.39344) rotate(180) scale(1.28425 1.12075)">
<stop stop-color="#FF5B74"/>
<stop offset="1" stop-color="#F21F4D"/>
</radialGradient>
<radialGradient id="paint17_radial_154_174" cx="0" cy="0" r="1" gradientUnits="userSpaceOnUse" gradientTransform="translate(17.4955 11.1379) rotate(180) scale(1.51318 1.32054)">
<stop stop-color="#57FBA4"/>
<stop offset="1" stop-color="#21E28C"/>
</radialGradient>
<radialGradient id="paint18_radial_154_174" cx="0" cy="0" r="1" gradientUnits="userSpaceOnUse" gradientTransform="translate(8.93029 9.18731) rotate(160.894) scale(2.80282 2.5905)">
<stop stop-color="#9395E9"/>
<stop offset="1" stop-color="#6969BD"/>
</radialGradient>
<radialGradient id="paint19_radial_154_174" cx="0" cy="0" r="1" gradientUnits="userSpaceOnUse" gradientTransform="translate(7.52276 10.6764) rotate(90) scale(1.14169)">
<stop stop-color="#806FE7"/>
<stop offset="1" stop-color="#806FE7" stop-opacity="0"/>
</radialGradient>
<radialGradient id="paint20_radial_154_174" cx="0" cy="0" r="1" gradientUnits="userSpaceOnUse" gradientTransform="translate(15.296 12.6981) rotate(154.717) scale(2.37332 2.19353)">
<stop stop-color="#9395E9"/>
<stop offset="1" stop-color="#6969BD"/>
</radialGradient>
<radialGradient id="paint21_radial_154_174" cx="0" cy="0" r="1" gradientUnits="userSpaceOnUse" gradientTransform="translate(14.3912 14.2826) rotate(90) scale(1.14169)">
<stop stop-color="#806FE7"/>
<stop offset="1" stop-color="#806FE7" stop-opacity="0"/>
</radialGradient>
<radialGradient id="paint22_radial_154_174" cx="0" cy="0" r="1" gradientUnits="userSpaceOnUse" gradientTransform="translate(10.8293 12.5199) rotate(136.975) scale(1.83308 1.68722)">
<stop stop-color="#8886E9"/>
<stop offset="1" stop-color="#8076E3"/>
</radialGradient>
</defs>
</svg>
